<?xml version="1.0" standalone="no"?>
<!DOCTYPE svg PUBLIC "-//W3C//DTD SVG 20010904//EN"
 "http://www.w3.org/TR/2001/REC-SVG-20010904/DTD/svg10.dtd">
<svg version="1.0" xmlns="http://www.w3.org/2000/svg"
 width="700.000000pt" height="700.000000pt" viewBox="0 0 700.000000 700.000000"
 preserveAspectRatio="xMidYMid meet">
<metadata>
Created by potrace 1.11, written by Peter Selinger 2001-2013
</metadata>
<g transform="translate(0.000000,700.000000) scale(0.100000,-0.100000)"
fill="#000000" stroke="none">
<path d="M3238 6995 c-2 -2 -44 -6 -94 -9 -51 -4 -102 -9 -114 -11 -12 -2 -41
-6 -64 -9 -260 -31 -599 -125 -871 -241 -275 -118 -560 -287 -789 -469 -579
-461 -1001 -1102 -1186 -1801 -32 -121 -76 -332 -85 -410 -3 -27 -8 -59 -10
-70 -19 -91 -27 -536 -12 -709 9 -117 33 -277 58 -401 12 -55 23 -108 24 -117
21 -106 115 -384 186 -550 137 -319 311 -601 533 -863 131 -154 321 -340 467
-455 35 -28 71 -56 79 -63 240 -194 648 -409 995 -525 166 -56 413 -116 560
-137 316 -45 702 -51 940 -15 33 5 83 11 110 15 28 3 59 8 70 10 11 3 31 7 45
9 28 5 30 5 183 41 505 119 1041 396 1433 742 66 58 94 77 80 54 -9 -15 23
-169 55 -260 111 -321 371 -579 694 -689 159 -54 348 -76 409 -47 34 16 66 65
66 100 0 34 -32 84 -64 99 -17 8 -58 16 -91 17 -69 3 -200 29 -265 53 -308
114 -530 392 -576 722 -4 27 -7 91 -8 143 l-2 95 50 59 c238 281 406 548 556
882 45 101 140 367 155 435 1 8 10 40 19 70 8 30 17 66 20 80 2 14 11 54 20
90 56 240 82 626 62 933 -7 109 -32 323 -40 335 -2 4 -7 30 -10 57 -4 28 -14
79 -22 115 -9 36 -17 73 -19 82 -19 88 -87 300 -142 443 -38 98 -182 399 -212
443 -10 15 -44 70 -77 122 -372 604 -968 1099 -1649 1370 -142 56 -391 134
-495 154 -14 3 -59 12 -100 20 -99 19 -131 24 -220 36 -41 5 -95 12 -120 15
-47 7 -526 15 -532 10z"/>
</g>
</svg>
